<?xml version="1.0" standalone="no"?>
<!DOCTYPE svg PUBLIC "-//W3C//DTD SVG 1.1//EN" "http://www.w3.org/Graphics/SVG/1.1/DTD/svg11.dtd" >
<svg xmlns="http://www.w3.org/2000/svg">
<metadata>
This is a custom SVG webfont generated by Font Squirrel.
</metadata>
<defs>
<font id="FSLolaBoldRegular" horiz-adv-x="1026" >
<font-face units-per-em="2048" ascent="1508" descent="-540" />
<missing-glyph horiz-adv-x="478" />
<glyph unicode=" " horiz-adv-x="478" d="M0 0v2v-2z" />
<glyph unicode="!" horiz-adv-x="594" d="M154 1184q10 132 146 136q136 -4 148 -136l-2 -22l-94 -760h-104l-92 760zM162 124q12 128 138 140q128 -12 142 -140v2v-2q-14 -128 -142 -140q-126 12 -138 140z" />
<glyph unicode="&#x22;" horiz-adv-x="712" d="M88 1216q8 102 114 104q104 -2 112 -104v2v-2l-2 -32l-66 -336h-88l-66 336zM402 1216q6 102 110 104q104 -2 114 -104l-2 -32l-66 -336h-88l-66 336z" />
<glyph unicode="#" horiz-adv-x="1142" d="M66 376v184h230v176h-230v182h230v378h184v-378h184v378h184v-378h230v-182h-230v-176h230v-184h-230v-376h-184v376h-184v-376h-184v376h-230zM480 560h184v176h-184v-176v2v-2z" />
<glyph unicode="$" horiz-adv-x="1142" d="M112 924q4 328 394 388v200h142v-194q166 -12 286 -56l-10 -216q-142 54 -276 62v-332q136 -36 254 -118q116 -84 122 -282q-2 -178 -106 -276q-104 -96 -270 -118v-206h-142v200q-210 8 -382 84l12 238q80 -44 180 -74q98 -30 190 -34v338q-146 36 -266 116t-128 280z M384 960q6 -98 122 -138v272q-122 -34 -122 -134zM648 208q100 32 104 134v2v-2q-6 96 -104 138v-272z" />
<glyph unicode="%" horiz-adv-x="1762" d="M128 938q0 176 78 278t230 104q154 -2 234 -104q82 -102 82 -278v-2q0 -178 -82 -280q-80 -102 -234 -104q-304 16 -308 386zM320 936q-2 -244 116 -232q120 -14 118 234v2v-2v-2q2 244 -118 232q-118 12 -116 -232zM560 -16l434 1336h212l-434 -1336h-212zM1010 368 q0 178 80 280q82 102 238 104q154 -2 234 -104q78 -102 78 -280t-78 -280q-80 -102 -234 -104q-156 2 -238 104q-80 102 -80 280zM1208 366q-2 -242 120 -230q122 -12 120 230v2q2 244 -120 232q-122 12 -120 -234z" />
<glyph unicode="&#x26;" horiz-adv-x="1422" d="M98 372q-2 252 252 354q-148 70 -158 260q6 166 126 250t298 84q180 -4 306 -58l-10 -192q-120 56 -246 58q-198 -4 -202 -160q14 -174 244 -170h584v-182h-180v-334q-4 -118 92 -114q76 4 150 46l-16 -174q-84 -58 -220 -64q-180 6 -228 146q-54 -68 -150 -108 q-96 -38 -208 -38q-198 2 -314 108q-116 104 -120 288zM384 392q14 -204 220 -214q142 4 204 90q48 70 48 182v2v-2v166h-208q-126 0 -196 -58q-68 -62 -68 -166z" />
<glyph unicode="'" horiz-adv-x="402" d="M88 1216q8 102 114 104q104 -2 112 -104v2v-2l-2 -32l-66 -336h-88l-66 336z" />
<glyph unicode="(" horiz-adv-x="638" d="M128 504q2 318 126 560q124 240 356 336l38 -72q-130 -92 -190 -290q-58 -200 -58 -534t58 -534q60 -200 190 -290v2v-2l-38 -72q-232 96 -356 336q-124 242 -126 560z" />
<glyph unicode=")" horiz-adv-x="638" d="M-8 -320q130 90 190 290t58 534q2 334 -58 534q-60 198 -190 290l40 72q230 -96 354 -336q124 -242 126 -560v2v-2q-2 -318 -126 -560q-124 -240 -354 -336z" />
<glyph unicode="*" horiz-adv-x="944" d="M120 786q12 66 72 78l204 68l-204 66q-60 14 -72 80q6 80 86 94q42 -4 68 -32l160 -146l-46 210q-4 12 -2 34q2 80 86 82q82 -2 88 -82l-4 -34l-48 -210l160 146q28 28 72 32q78 -14 86 -94q-14 -66 -76 -80l-202 -66l202 -68q62 -12 76 -78v2v-2q-8 -80 -86 -96 q-44 6 -72 34l-160 146l48 -212l4 -32q-6 -82 -88 -82q-84 0 -86 82l2 32l46 212l-160 -146q-26 -28 -68 -34q-80 16 -86 96z" />
<glyph unicode="+" horiz-adv-x="1096" d="M176 560v192h274v264h198v-264h270v2v-2v-192h-270v-264h-198v264h-274z" />
<glyph unicode="," horiz-adv-x="512" d="M74 -224q60 42 100 102q40 58 50 106q-102 26 -110 130q4 120 136 134q144 -8 150 -162v2v-2q-2 -112 -72 -222q-68 -110 -182 -168z" />
<glyph unicode="-" horiz-adv-x="782" d="M126 392v206h534v2v-2v-206h-534z" />
<glyph unicode="." horiz-adv-x="506" d="M120 124q14 128 138 140q122 -12 134 -140v2v-2q-12 -128 -134 -140q-124 12 -138 140z" />
<glyph unicode="/" horiz-adv-x="672" d="M6 -16l428 1336v2v-2h232l-428 -1336h-232z" />
<glyph unicode="0" horiz-adv-x="1142" d="M88 646q0 322 120 496q122 176 364 178q244 -2 364 -178q120 -174 120 -496q4 -654 -482 -670q-486 16 -486 670zM384 646q-12 -464 190 -456q200 -8 186 456v2v-2q12 464 -188 458q-200 6 -188 -458z" />
<glyph unicode="1" horiz-adv-x="1142" d="M216 1076l364 220h172v-1112h202v2v-2v-184h-674v184h200v826l-168 -96z" />
<glyph unicode="2" horiz-adv-x="1142" d="M138 992q92 328 462 326q196 0 316 -108q106 -96 108 -266q-4 -156 -96 -252t-218 -176l-170 -132q-84 -78 -108 -178v2v-2h600l-18 -206h-864v64q2 210 92 338q88 128 232 224q120 82 192 150q70 70 72 160q-2 158 -168 168q-150 -8 -194 -166z" />
<glyph unicode="3" horiz-adv-x="1142" d="M114 1000q92 316 438 318q214 -2 318 -100q104 -96 104 -240q-6 -202 -176 -270q242 -84 234 -320v2v-2q-2 -190 -130 -300q-130 -110 -368 -112q-218 4 -390 84l14 218q70 -38 160 -66q92 -28 180 -30q248 10 248 208q-4 104 -78 146t-188 40v176q204 2 220 196 q-6 148 -160 156q-144 -2 -192 -156z" />
<glyph unicode="4" horiz-adv-x="1142" d="M66 388l480 932l216 -120l-386 -746h296v240h256v-240h144v2v-2v-206h-144v-248h-256v248h-546z" />
<glyph unicode="5" horiz-adv-x="1142" d="M170 58l14 214q138 -82 310 -90q250 6 252 234q0 112 -56 164q-54 62 -246 60h-242v654h712v-206h-490v-256h94q272 4 392 -104q114 -102 114 -302v2v-2q0 -204 -124 -326q-124 -120 -364 -124q-210 4 -366 82z" />
<glyph unicode="6" horiz-adv-x="1142" d="M106 576q2 334 150 536q150 202 422 206q136 0 250 -44l-4 -186q-94 36 -218 40q-146 -4 -216 -100q-68 -96 -88 -232q118 68 256 68q402 -10 406 -420q0 -198 -120 -330t-352 -138q-254 6 -372 170q-116 166 -114 430zM384 536q-2 -352 212 -362q184 8 198 264v2v-2 q0 242 -202 242q-112 -2 -206 -66z" />
<glyph unicode="7" horiz-adv-x="1142" d="M148 1088v206h822v2v-2l52 -136l-470 -1158h-286l476 1088h-594z" />
<glyph unicode="8" horiz-adv-x="1142" d="M120 350q0 202 210 322q-148 84 -164 300q2 158 112 252t302 96q394 -16 408 -322q-14 -202 -192 -294q104 -46 176 -122q74 -78 76 -214q2 -176 -116 -282q-116 -108 -362 -110q-434 10 -450 374zM376 364q12 -192 204 -196q196 0 204 180v2v-2q-4 92 -82 142 q-80 50 -190 92q-132 -76 -136 -218zM416 990q2 -78 56 -124q54 -48 138 -82q136 70 142 198q-10 162 -170 162q-160 -8 -166 -154z" />
<glyph unicode="9" horiz-adv-x="1142" d="M82 850q0 198 118 332q120 132 350 136q250 -4 366 -170q118 -166 116 -430q-2 -332 -150 -534q-150 -202 -418 -208q-132 2 -248 44l4 188q96 -36 216 -42q144 6 212 102t88 230q-116 -68 -252 -66q-400 10 -402 418zM352 856q-2 -240 198 -240q108 2 202 64l2 80v2v-2 q2 350 -208 360q-182 -6 -194 -264z" />
<glyph unicode=":" horiz-adv-x="506" d="M120 124q14 128 138 140q122 -12 134 -140v2v-2q-12 -128 -134 -140q-124 12 -138 140zM120 690q14 128 138 142q122 -14 134 -142q-12 -126 -134 -138q-124 12 -138 138z" />
<glyph unicode=";" horiz-adv-x="512" d="M76 -224q58 42 98 102q40 58 50 106q-100 26 -110 132q6 120 136 132q142 -6 146 -162v2v-2q-2 -112 -70 -222t-180 -168zM120 690q12 128 136 142q124 -14 136 -142q-12 -126 -136 -138q-124 12 -136 138z" />
<glyph unicode="&#x3c;" horiz-adv-x="1096" d="M176 560v188l746 292v-206l-488 -178l488 -178v2v-2v-206z" />
<glyph unicode="=" horiz-adv-x="1096" d="M180 344v192h738v2v-2v-192h-738zM180 776v192h738v-192h-738z" />
<glyph unicode="&#x3e;" horiz-adv-x="1096" d="M176 272v206l488 178l-488 178v206l746 -292v2v-2v-188z" />
<glyph unicode="?" d="M62 994q78 318 430 326q192 -2 306 -100q112 -96 114 -264q4 -300 -322 -370l-42 -8l-24 -176h-122l-24 290l82 14q180 30 180 218q-2 168 -166 180q-134 0 -176 -158zM328 124q12 128 136 140q124 -12 136 -140v2v-2q-12 -128 -136 -140q-124 12 -136 140z" />
<glyph unicode="@" horiz-adv-x="1576" d="M98 654q6 314 200 488q196 174 496 178q312 -6 496 -168q186 -164 190 -430q-16 -454 -362 -460q-158 2 -202 98q-66 -84 -196 -88q-118 0 -190 58q-70 60 -72 182q2 224 280 240l144 -20v42q-4 112 -136 114q-124 -2 -228 -56v140q114 48 256 52q164 4 254 -74 q68 -58 68 -188v-272q-2 -74 64 -74q120 4 122 284q-4 222 -130 344q-128 122 -354 124q-242 -2 -372 -140q-128 -136 -130 -376q8 -530 550 -540q344 10 552 120l-8 -130q-98 -50 -252 -88l-322 -38q-330 2 -522 178q-192 174 -196 500zM672 520q2 -108 102 -114 q96 -2 108 120v2v-2v100l-94 14q-114 -4 -116 -120z" />
<glyph unicode="A" horiz-adv-x="1270" d="M42 0l358 1096h-120v200h504l468 -1296h-296l-88 264h-466l-80 -264h-280zM460 456h344l-142 420q-30 86 -38 160h-2q-6 -68 -34 -158l-128 -422v2v-2z" />
<glyph unicode="B" horiz-adv-x="1244" d="M36 1088v206h586h28q232 0 332 -94q96 -86 100 -234q-8 -194 -172 -266q248 -60 250 -318q2 -230 -184 -324q-118 -58 -314 -58h-26h-476v1088h-124zM448 206h162q14 -1 27 -1q224 0 219 191v2v-2q0 96 -48 138q-50 50 -185 50h-11h-164v-378zM448 752h134h10 q114 0 160 44q44 40 42 128q2 74 -46 122q-42 42 -163 42h-11h-126v-336z" />
<glyph unicode="C" horiz-adv-x="1184" d="M210 1124q136 188 430 194q196 -2 316 -100q120 -100 150 -270v2v-2l-290 -54q-32 194 -186 202q-128 -2 -190 -118q-64 -116 -64 -310v-10q0 -209 78 -332q78 -124 256 -128q98 2 198 36t176 82l-16 -224q-70 -48 -180 -80q-110 -34 -238 -36q-306 6 -442 194 q-136 185 -136 474q0 290 138 480z" />
<glyph unicode="D" horiz-adv-x="1318" d="M36 1088v206h516h31q287 0 447 -106q220 -144 218 -546q-6 -462 -320 -580q-152 -62 -368 -62h-400v1088h-124zM448 206h132q152 2 236 60q129 99 129 347q0 21 -1 43v2v-2v25q0 258 -122 345q-89 62 -259 62h-11h-104v-882z" />
<glyph unicode="E" horiz-adv-x="1094" d="M144 0v1294h824v-206h-536v-330h434v-206h-434v-346v2v-2h582l-18 -206h-852z" />
<glyph unicode="F" horiz-adv-x="1034" d="M144 0v1294h824v2v-2v-206h-536v-330h436v-206h-436v-552h-288z" />
<glyph unicode="G" horiz-adv-x="1290" d="M72 650q4 322 160 496q156 172 428 172q212 -2 336 -102q126 -100 160 -272l-294 -50q-34 190 -214 202q-134 -4 -202 -122q-70 -118 -70 -308v-17q0 -442 316 -451q118 4 196 56v202h-154v174h434v2v-2v-632h-164l-44 74q-130 -94 -330 -96q-292 6 -426 192 q-132 186 -132 482z" />
<glyph unicode="H" horiz-adv-x="1320" d="M144 0v1296h288v-530h456v530h288v2v-2v-1296h-288v536h-456v-536h-288z" />
<glyph unicode="I" horiz-adv-x="784" d="M118 0v160h130v968h-130v166h554v-166h-136v-968h136v2v-2v-160h-554z" />
<glyph unicode="J" horiz-adv-x="930" d="M92 26l12 210l96 -30l116 -16q94 0 138 44q42 40 42 135v17v702h-332v206h620v2v-2v-880q1 -17 1 -32q0 -164 -57 -252q-94 -152 -352 -154q-162 4 -284 50z" />
<glyph unicode="K" horiz-adv-x="1262" d="M144 0v1296h288v-536h164l276 536h288l-336 -634l222 -406q35 -74 101 -74h3q50 2 84 24v2v-2l-18 -180q-64 -38 -174 -42h-13q-161 0 -259 198l-190 346h-148v-528h-288z" />
<glyph unicode="L" horiz-adv-x="1032" d="M144 0v1296h288v-1090v2v-2h558l-16 -206h-830z" />
<glyph unicode="M" horiz-adv-x="1616" d="M144 0v1296h264l354 -774l36 -90l20 -72h2l16 72l32 90l332 774h272v2v-2v-1296h-246v848l-24 -86l-32 -86l-292 -676h-136l-304 674q-36 78 -54 176v-850h-240z" />
<glyph unicode="N" horiz-adv-x="1336" d="M144 0v1296h182l560 -722q50 -60 66 -110v832h240v2v-2v-1296h-188l-558 720q-44 56 -62 110v-830h-240z" />
<glyph unicode="O" horiz-adv-x="1282" d="M72 648q0 304 142 486q142 180 426 184q284 -4 426 -184q142 -182 142 -486t-142 -486t-426 -186q-284 4 -426 186t-142 486zM376 648q10 -450 249 -450h15h15q240 0 249 450v2v-2q-10 448 -249 448h-15h-15q-239 0 -249 -448z" />
<glyph unicode="P" horiz-adv-x="1216" d="M36 1088v206h532q23 1 45 1q221 0 363 -73q180 -92 184 -362q-2 -270 -186 -374q-133 -78 -347 -78h-11h-168v-408h-288v1088h-124zM448 606h130h10q131 0 202 50q74 54 74 198v2v-2q2 130 -84 190q-63 44 -185 44h-21h-126v-482z" />
<glyph unicode="Q" horiz-adv-x="1282" d="M72 648q0 304 142 484q142 182 426 186q284 -4 426 -186q142 -180 142 -484q0 -280 -118 -454q-120 -176 -360 -208l-8 -54q4 -92 102 -94q100 2 238 82l-14 -176q-132 -106 -320 -112q-246 4 -260 246q2 62 26 116q-212 48 -316 220q-106 172 -106 434zM376 648 q10 -450 249 -450h15h15q240 0 249 450v2v-2q-10 448 -249 448h-15h-15q-239 0 -249 -448z" />
<glyph unicode="R" horiz-adv-x="1292" d="M36 1088v206h572h12q251 0 374 -82q164 -108 166 -324q-8 -310 -260 -396l148 -250q34 -62 87 -62h7q54 4 96 30l-16 -184q-66 -38 -168 -42q-106 0 -166 44t-110 134l-176 294h-154v-456h-288v1088h-124zM448 640h178q240 2 240 214v14v2v-2q0 112 -56 166 q-60 54 -204 54h-20h-138v-448z" />
<glyph unicode="S" horiz-adv-x="1116" d="M128 922q2 180 126 288q124 106 362 108l176 -18l150 -38l-10 -220q-146 58 -298 62q-230 -6 -234 -148q12 -114 164 -156q152 -40 304 -118t164 -306v2v-2q-4 -206 -140 -304q-136 -96 -348 -96q-216 2 -404 84l12 236q84 -46 188 -76q102 -28 192 -30q100 0 164 38 q62 36 64 114q-12 118 -164 160q-152 40 -304 116t-164 304z" />
<glyph unicode="T" horiz-adv-x="1108" d="M38 1088v206h1030v2v-2v-206h-372v-1088h-288v1088h-370z" />
<glyph unicode="U" horiz-adv-x="1300" d="M146 468v828h286v-816v-11q0 -139 48 -197q52 -70 176 -72q124 2 174 68q53 74 53 186q0 12 -1 24v818h278v2v-2v-818v-17q0 -202 -92 -323q-122 -160 -418 -162h-8q-266 0 -392 138q-105 110 -105 323q0 15 1 31z" />
<glyph unicode="V" horiz-adv-x="1174" d="M20 1296h302l246 -836q24 -80 24 -156h2q2 74 28 156l250 836v2v-2h284l-426 -1296h-298z" />
<glyph unicode="W" horiz-adv-x="1752" d="M20 1296h286l246 -812q22 -76 28 -148h2q8 78 26 144l172 542l-82 274h270l230 -808l26 -152h4q6 78 24 154l210 806v2v-2h272l-390 -1296h-260l-194 656l-206 -656h-254z" />
<glyph unicode="X" horiz-adv-x="1236" d="M40 0l400 674l-384 622h322l254 -424l226 424h290l-384 -646l238 -392q41 -74 97 -74h3q44 2 86 30v2v-2l-12 -184q-62 -42 -166 -46h-4q-161 0 -248 168l-180 302l-244 -454h-294z" />
<glyph unicode="Y" horiz-adv-x="1202" d="M8 1296h318l248 -486q42 -76 52 -144h2q8 62 48 140l240 490v2v-2h280l-452 -850v-446h-288v450z" />
<glyph unicode="Z" horiz-adv-x="1106" d="M104 0v160l566 928h-542v206h884v-162l-566 -926v2v-2h594l-18 -206h-918z" />
<glyph unicode="[" horiz-adv-x="654" d="M160 -376v1776h474v-192h-218v-1392h218v2v-2v-192h-474z" />
<glyph unicode="\" horiz-adv-x="672" d="M6 1320h232v2v-2l428 -1336h-232z" />
<glyph unicode="]" horiz-adv-x="654" d="M16 -184h216v1392h-216v192h472v2v-2v-1776h-472v192z" />
<glyph unicode="^" horiz-adv-x="1096" d="M156 784l286 492q20 44 64 44h90q42 2 64 -46v2v-2l282 -490h-194l-196 352l-200 -352h-196z" />
<glyph unicode="_" horiz-adv-x="1024" d="M-10 -98h1044v2v-2v-150h-1044v150z" />
<glyph unicode="`" horiz-adv-x="628" d="M114 1276q0 78 102 84q74 -2 150 -60q74 -58 146 -148v2v-2l-24 -72q-144 112 -262 112l-76 -12q-32 42 -36 96z" />
<glyph unicode="a" horiz-adv-x="1110" d="M88 314q2 162 106 248q104 84 282 84q118 -2 204 -32v26v16q0 81 -38 124q-48 50 -170 52q-150 0 -296 -72v182q146 64 340 66h9q229 0 339 -104q90 -84 88 -252v-418q0 -60 48 -60q46 4 80 26l-10 -158q-68 -48 -182 -52q-134 0 -176 108q-92 -110 -272 -114 q-160 2 -256 86q-94 86 -96 244zM360 326q8 -160 158 -162q78 2 120 46t42 122v2v-2v132q-56 22 -142 24q-180 -12 -178 -162z" />
<glyph unicode="b" horiz-adv-x="1132" d="M26 1206v194h390v-496q92 98 264 102q198 -2 296 -136q96 -134 96 -366q2 -244 -120 -384q-132 -136 -386 -136h-22q-222 4 -400 60v1162h-118zM416 180l58 -14l64 -8q108 0 170 54q92 83 92 270v16v2v-2q2 302 -193 302h-5q-90 0 -140 -52q-48 -48 -46 -154v-414z" />
<glyph unicode="c" horiz-adv-x="996" d="M64 492q2 238 122 376q120 136 340 140q166 -2 276 -82q102 -82 132 -234v2v-2l-248 -50q-24 176 -156 182q-100 -4 -146 -90q-48 -86 -48 -234q0 -324 260 -324q166 4 306 94l-10 -192q-140 -88 -348 -94q-468 10 -480 508z" />
<glyph unicode="d" horiz-adv-x="1156" d="M64 452q2 252 142 402t398 154l116 -12v210h-120v194h392v-1166q0 -60 45 -60h3q46 4 80 26l-10 -156q-72 -50 -184 -54h-9q-121 0 -171 108q-98 -110 -274 -114q-394 14 -408 468zM336 464q0 -122 48 -200q50 -78 156 -80q96 2 138 56q42 50 42 137v15v2v-2v430l-94 10 q-284 -10 -290 -368z" />
<glyph unicode="e" horiz-adv-x="1056" d="M64 494q4 244 130 378q124 134 336 136q208 -4 330 -124t124 -326v-17q0 -133 -114 -133h-10h-520q36 -232 268 -232h4q184 4 328 98l-12 -186q-156 -104 -372 -104q-240 2 -366 140q-124 136 -126 370zM336 566h366q20 0 18 20v2v-2q-6 232 -190 238h-7 q-164 0 -187 -258z" />
<glyph unicode="f" horiz-adv-x="736" d="M20 800v192h156v90v22q0 146 74 230q84 88 266 90q120 -4 222 -38v2v-2v-178q-76 28 -166 30q-68 0 -96 -38q-28 -32 -28 -108v-100h242v-192h-242v-800h-272v800h-156z" />
<glyph unicode="g" horiz-adv-x="1128" d="M64 450q4 264 158 410t418 148l190 -18q96 -16 170 -44v-914v-18q0 -216 -94 -314q-114 -132 -363 -132h-7l-206 24q-102 24 -174 64l16 198q148 -84 326 -88q114 0 174 52q56 51 56 172v16v84q-78 -90 -252 -98q-402 12 -412 458zM336 468q6 -282 206 -284q92 2 140 54 q48 54 46 148v2v-2v424l-94 14q-288 -14 -298 -356z" />
<glyph unicode="h" horiz-adv-x="1150" d="M144 0v1400h272v-486q82 86 252 92q176 0 270 -96q86 -94 86 -246v-20v2v-2v-644h-272v602v18q0 79 -32 126q-38 52 -126 54q-96 -4 -138 -62q-40 -57 -40 -156v-18v-564h-272z" />
<glyph unicode="i" horiz-adv-x="628" d="M50 798v194h390v-766q0 -62 47 -62h3q44 4 78 26v2v-2l-8 -156q-64 -44 -180 -50q-126 0 -174 70q-40 58 -38 160v584h-118zM146 1262q12 138 152 152q136 -14 148 -152q-10 -138 -146 -152q-140 14 -154 152z" />
<glyph unicode="j" horiz-adv-x="612" d="M-70 -384l10 188q66 -28 146 -28q7 -1 13 -1q109 0 109 149v20v856h-124v192h396v2v-2v-1006q1 -24 1 -46q0 -160 -63 -248q-82 -108 -277 -108h-7h-12q-101 0 -192 32zM186 1264q12 138 152 152q136 -14 148 -152q-10 -140 -146 -152q-140 12 -154 152z" />
<glyph unicode="k" horiz-adv-x="1118" d="M26 1206v194h390v-760h110l202 352h270l-258 -444l196 -326q31 -58 79 -58h3q44 2 80 26v2v-2l-8 -162q-58 -42 -160 -44h-8q-150 0 -224 146l-186 310h-96v-444h-272v1210h-118z" />
<glyph unicode="l" horiz-adv-x="628" d="M26 1206v194h390v-1174q0 -62 47 -62h3q44 4 78 26v2v-2l-8 -156q-64 -44 -180 -50q-126 0 -174 70q-40 58 -38 160v992h-118z" />
<glyph unicode="m" horiz-adv-x="1756" d="M34 792v196h280l50 -130q86 138 312 148h16q184 0 282 -136q90 126 302 136q204 -2 292 -126q56 -75 56 -229v-11v2v-2v-640h-272v600q1 13 1 25q0 73 -31 119q-42 52 -124 54q-88 -2 -132 -60t-42 -170v-568h-272v600q1 13 1 25q0 73 -31 119q-42 52 -124 54 q-88 -2 -132 -60t-42 -170v-568h-272v792h-118z" />
<glyph unicode="n" horiz-adv-x="1166" d="M34 792v196h280l50 -130q100 142 318 148q178 0 272 -98q86 -94 86 -246v-20v2v-2v-642h-272v600v18q0 79 -32 126q-40 52 -130 54q-98 -4 -140 -62q-42 -57 -42 -155v-17v-564h-272v792h-118z" />
<glyph unicode="o" horiz-adv-x="1090" d="M64 494q2 238 124 374t356 138q234 -2 358 -138q122 -136 122 -374t-122 -372q-124 -136 -358 -138q-234 2 -356 138q-122 134 -124 372zM336 494q2 -174 56 -248q55 -72 147 -72h5h5q94 0 147 72q56 74 56 248v2v-2q-8 323 -190 323q-9 0 -18 -1q-9 1 -18 1 q-182 0 -190 -323z" />
<glyph unicode="p" horiz-adv-x="1144" d="M34 792v196h284l54 -132q104 148 308 150q208 -2 304 -138q98 -134 96 -362v-13q0 -262 -154 -405q-124 -104 -342 -104l-160 14v-406h-272v1200h-118zM424 176l136 -16q142 2 196 90q52 84 52 227v21v2v-2v12q0 291 -200 292q-94 0 -144 -66q-40 -53 -40 -150v-18v-392z " />
<glyph unicode="q" horiz-adv-x="1120" d="M64 446q2 256 144 408q142 150 410 154l198 -18l176 -40v-1038q0 -98 10 -160q12 -64 44 -124l-262 -52q-60 84 -64 268v246q-78 -98 -256 -106q-192 2 -296 126q-102 124 -104 336zM336 470q0 -126 46 -204q48 -80 154 -82q86 0 136 52q48 50 48 144v2v-2v430l-106 14 q-274 -16 -278 -354z" />
<glyph unicode="r" horiz-adv-x="748" d="M34 792v196h284l50 -142q82 156 264 160l62 -6v2v-2v-218l-80 6h-6q-86 0 -134 -54q-50 -63 -50 -177v-17v-540h-272v792h-118z" />
<glyph unicode="s" horiz-adv-x="938" d="M104 696q4 148 116 228q112 82 294 84q154 -2 280 -44v-190q-112 46 -262 50q-160 -2 -172 -102q10 -72 132 -100q124 -28 248 -90q122 -62 132 -232v2v-2q-4 -156 -116 -236t-286 -80q-196 0 -360 70l16 206q68 -38 158 -62l168 -24q160 0 164 98q-8 78 -132 106 t-246 86q-124 60 -134 232z" />
<glyph unicode="t" horiz-adv-x="792" d="M28 800v192h156v244l272 68v-312h230v-192h-230v-474q-1 -9 -1 -17q0 -125 111 -127q90 6 166 54v2v-2l-6 -184q-96 -64 -246 -68q-150 4 -226 82q-70 70 -70 238v18v478h-156z" />
<glyph unicode="u" horiz-adv-x="1176" d="M120 348v644h272v-602v-18q0 -81 34 -126q40 -54 130 -56q98 4 140 64q40 57 40 154v18v566h272v-758q0 -62 47 -62h3q44 4 78 26v2v-2l-10 -154q-72 -50 -182 -54q-128 0 -176 104q-102 -106 -288 -110q-180 0 -274 98q-86 96 -86 252v14z" />
<glyph unicode="v" horiz-adv-x="994" d="M10 992h276l174 -552l38 -174q12 90 42 174l192 552v2v-2h252l-376 -992h-248z" />
<glyph unicode="w" horiz-adv-x="1432" d="M10 992h270l166 -522q32 -92 40 -170q6 76 38 172l106 314l-66 206h248l154 -518q28 -94 34 -178q8 82 36 178l156 518v2v-2h230l-328 -992h-212l-158 490l-162 -490h-208z" />
<glyph unicode="x" horiz-adv-x="990" d="M20 -4l320 520l-306 476h282l200 -312l180 312h242l-300 -496l176 -276q30 -54 84 -54q52 4 82 24v2v-2l-8 -162q-58 -40 -152 -44q-9 -1 -17 -1q-121 0 -219 157l-118 188l-198 -332h-248z" />
<glyph unicode="y" horiz-adv-x="1140" d="M120 348v644h272v-602v-18q0 -81 34 -126q40 -54 130 -56q98 4 140 64q40 57 40 154v18v566h272v2v-2v-952v-18q0 -224 -94 -322q-114 -132 -361 -132h-7l-204 24q-102 24 -176 64l16 202q152 -88 326 -92q114 0 172 54q56 51 56 177v17v54q-98 -78 -256 -84 q-180 0 -274 98q-86 96 -86 252v14z" />
<glyph unicode="z" horiz-adv-x="930" d="M88 0v146l444 654h-434v192h740v-150l-442 -650v2v-2h474l-14 -192h-768z" />
<glyph unicode="{" horiz-adv-x="700" d="M70 434v106l30 2q166 2 162 184l-12 222l-10 218q-4 238 314 232h100v-142h-56q-120 0 -118 -104q2 -70 22 -184l22 -222q4 -218 -204 -258q208 -42 204 -260l-22 -220q-20 -116 -22 -186q-2 -104 118 -104h56v2v-2v-142h-100q-326 4 -314 232l10 220l12 220 q4 182 -162 184z" />
<glyph unicode="|" horiz-adv-x="496" d="M144 -512v2048h200v2v-2v-2048h-200z" />
<glyph unicode="}" horiz-adv-x="700" d="M50 -282h58q118 0 116 104l-20 186q-20 114 -22 220q-4 218 202 260q-206 40 -202 258q2 108 22 222l20 184q2 104 -116 104h-58v142h100q318 6 314 -232l-10 -218l-10 -222q-6 -182 162 -184l28 -2v2v-2v-106l-28 -2q-168 -2 -162 -184l10 -220l10 -220 q12 -228 -314 -232h-100v142z" />
<glyph unicode="~" horiz-adv-x="1096" d="M42 408q116 286 326 286q116 -8 204 -72q86 -64 174 -72q114 4 210 140v2v-2l102 -84q-110 -276 -328 -286q-116 10 -202 72q-84 64 -176 72q-110 -2 -210 -138z" />
<glyph d="M0 0v2v-2z" />
<glyph d="M0 0v2v-2z" />
<glyph d="M0 0v2v-2z" />
<glyph d="M0 0v2v-2z" />
<glyph d="M0 0v2v-2z" />
<glyph unicode="&#x85;" d="M0 0v2v-2z" />
<glyph d="M0 0v2v-2z" />
<glyph d="M0 0v2v-2z" />
<glyph d="M0 0v2v-2z" />
<glyph d="M0 0v2v-2z" />
<glyph d="M0 0v2v-2z" />
<glyph d="M0 0v2v-2z" />
<glyph d="M0 0v2v-2z" />
<glyph d="M0 0v2v-2z" />
<glyph d="M0 0v2v-2z" />
<glyph d="M0 0v2v-2z" />
<glyph d="M0 0v2v-2z" />
<glyph d="M0 0v2v-2z" />
<glyph d="M0 0v2v-2z" />
<glyph d="M0 0v2v-2z" />
<glyph d="M0 0v2v-2z" />
<glyph d="M0 0v2v-2z" />
<glyph d="M0 0v2v-2z" />
<glyph d="M0 0v2v-2z" />
<glyph d="M0 0v2v-2z" />
<glyph d="M0 0v2v-2z" />
<glyph d="M0 0v2v-2z" />
<glyph d="M0 0v2v-2z" />
<glyph d="M0 0v2v-2z" />
<glyph d="M0 0v2v-2z" />
<glyph d="M0 0v2v-2z" />
<glyph d="M0 0v2v-2z" />
<glyph unicode="&#xa0;" horiz-adv-x="478" d="M0 0v2v-2z" />
<glyph unicode="&#xa1;" horiz-adv-x="594" d="M154 -186l2 22l92 754h104l94 -754l2 -22q-12 -132 -148 -134q-136 2 -146 134zM160 866q12 128 140 142q128 -14 140 -142q-12 -126 -140 -138q-128 12 -140 138v2v-2z" />
<glyph unicode="&#xa2;" horiz-adv-x="1142" d="M138 490q0 222 104 358t294 160v208h136v-208q124 -12 210 -78q102 -82 132 -236l-248 -52q-22 132 -94 170v-642h4q166 6 306 96l-10 -192q-120 -76 -300 -94v-204h-136v206q-388 54 -398 508zM416 508q-2 -234 120 -306v2v-2v610q-120 -70 -120 -304z" />
<glyph unicode="&#xa3;" horiz-adv-x="1142" d="M80 576v144h140q-46 100 -50 220q2 174 120 274q116 102 308 104q396 -10 464 -350l-258 -42q-32 162 -182 170q-156 -12 -158 -146q10 -114 68 -230h312v-144h-258q20 -56 22 -122q4 -152 -130 -248v2v-2h592l-20 -206h-890v150q154 100 160 258q-4 82 -40 168h-200z " />
<glyph unicode="&#xa4;" d="M0 0v2v-2z" />
<glyph unicode="&#xa5;" horiz-adv-x="1142" d="M-20 1296h320l248 -486q40 -78 52 -148h2q6 68 48 144l242 490v2v-2h278l-386 -730h198v-150h-262v-90h262v-150h-262v-176h-286v176h-262v150h262v90h-262v150h198z" />
<glyph unicode="&#xa6;" horiz-adv-x="496" d="M144 266h200v2v-2v-778h-200v778zM144 758v778h200v-778h-200z" />
<glyph unicode="&#xa7;" horiz-adv-x="1142" d="M184 370q8 212 198 314q-82 44 -138 112t-60 180q4 160 118 252q112 90 294 92q176 -4 310 -54l-16 -182q-122 48 -270 52q-172 -6 -180 -126q10 -84 134 -136q126 -52 252 -132q124 -82 134 -258q-6 -212 -196 -314q82 -42 138 -110t58 -180q-4 -162 -118 -252t-296 -92 q-174 4 -306 52l16 184q122 -48 268 -52q174 6 182 124q-10 84 -136 134q-124 48 -250 130t-136 262zM430 418q12 -106 154 -160q132 58 130 180v2v-2q-12 106 -154 160q-134 -58 -130 -180z" />
<glyph unicode="&#xa8;" horiz-adv-x="628" d="M24 1254q10 112 122 122q110 -10 118 -122v2v-2q-8 -110 -118 -118q-112 8 -122 118zM368 1254q10 112 120 122q110 -10 120 -122q-10 -110 -120 -118q-110 8 -120 118z" />
<glyph unicode="&#xa9;" horiz-adv-x="1546" d="M80 648q4 288 190 476q184 188 504 194q318 -6 502 -194t188 -476q-4 -290 -188 -478t-502 -194q-320 6 -504 194q-186 188 -190 478zM240 648q4 -252 148 -394q144 -140 386 -144q242 4 384 144q144 142 148 394q-4 250 -148 392q-142 142 -384 144q-242 -2 -386 -144 t-148 -392zM472 652q0 152 78 248t230 100q216 -4 258 -206v2v-2l-170 -32q-20 102 -92 102q-120 -12 -120 -204q-10 -214 162 -230q114 8 208 74l-10 -140q-86 -62 -226 -68q-170 4 -244 104q-76 102 -74 252z" />
<glyph unicode="&#xaa;" horiz-adv-x="778" d="M104 900q14 202 234 204q68 -2 118 -24v18q4 54 -22 82q-28 32 -98 34q-90 -2 -178 -46v110q88 40 202 42q138 -2 210 -64q56 -52 54 -152v-260q0 -36 28 -38q30 4 54 22l-6 -88q-42 -30 -114 -32q-82 0 -108 64q-54 -66 -162 -68q-200 2 -212 196zM272 910 q6 -98 90 -102q44 2 70 28q24 26 24 76v2v-2v82l-82 14q-104 -8 -102 -98z" />
<glyph unicode="&#xab;" horiz-adv-x="1072" d="M144 496q2 34 26 54l316 330l52 -152l-180 -232v2v-2l180 -232l-52 -152l-316 328q-26 24 -26 56zM510 496q4 34 28 54l314 330l52 -152l-178 -232l178 -232l-52 -152l-314 328q-26 24 -28 56z" />
<glyph unicode="&#xac;" horiz-adv-x="1096" d="M182 776v192h738v2v-2v-592h-192v400h-546z" />
<glyph unicode="&#xad;" horiz-adv-x="782" d="M0 0v2v-2z" />
<glyph unicode="&#xae;" horiz-adv-x="1546" d="M80 650q4 288 190 474q186 188 508 194q316 -6 498 -194q184 -186 188 -474q-4 -290 -188 -478q-182 -190 -498 -196q-322 6 -508 196q-186 188 -190 478zM240 650q4 -254 148 -396q146 -140 390 -144q238 4 382 144q142 142 146 396q-4 252 -146 392q-144 140 -382 142 q-244 -2 -390 -142q-144 -140 -148 -392zM454 864v126h318q124 2 196 -40q96 -54 98 -180q-6 -158 -132 -206l64 -110q22 -38 48 -32q30 0 62 20l-12 -120q-42 -24 -96 -28q-108 2 -158 106l-84 138h-62v-234h-176v560h-66zM696 656h82q118 -2 110 106v2v-2q2 52 -22 74 q-28 30 -108 28h-62v-208z" />
<glyph unicode="&#xaf;" horiz-adv-x="628" d="M76 1208v134h480v2v-2v-134h-480z" />
<glyph unicode="&#xb0;" horiz-adv-x="934" d="M122 972q2 160 100 254q98 92 246 94q148 -2 246 -94q98 -94 102 -254q-4 -160 -102 -254q-98 -92 -246 -94q-148 2 -246 94q-98 94 -100 254zM288 972q0 -88 44 -150q44 -60 136 -62q92 2 136 62q46 62 46 150v2v-2q0 90 -46 150q-44 60 -136 62q-92 -2 -136 -62 t-44 -150z" />
<glyph unicode="&#xb1;" horiz-adv-x="1096" d="M176 0v192h742v2v-2v-192h-742zM176 560v192h274v264h198v-264h270v-192h-270v-264h-198v264h-274z" />
<glyph unicode="&#xb2;" horiz-adv-x="1142" d="M128 1104q66 220 296 216q116 0 192 -58q78 -58 80 -176q-4 -114 -80 -180q-76 -64 -160 -118t-116 -134v2v-2h362l-14 -150h-550v52q6 168 94 254q86 84 172 138t92 132q0 84 -90 88q-78 0 -108 -102z" />
<glyph unicode="&#xb3;" horiz-adv-x="1142" d="M116 1112q64 210 280 208q134 -2 202 -62q66 -58 66 -150q-2 -110 -80 -158q124 -56 120 -186v2v-2q-8 -250 -314 -260q-132 2 -250 56l10 160q112 -62 220 -66q138 4 134 110q-2 100 -166 96v126q132 2 134 104q-2 78 -82 80q-76 6 -108 -94z" />
<glyph unicode="&#xb4;" horiz-adv-x="628" d="M120 1152q72 90 146 148t150 60q102 -6 102 -84v2v-2q-4 -54 -36 -96l-74 12q-118 0 -262 -112z" />
<glyph unicode="&#xb5;" horiz-adv-x="1194" d="M144 -424v1416h272v-602q-4 -94 32 -144q40 -54 128 -56q96 4 136 64q44 62 40 172v566h272v-758q0 -64 50 -62q44 4 78 26v2v-2l-10 -162q-72 -48 -182 -52q-128 -4 -176 110q-100 -106 -282 -110h-86v-408h-272z" />
<glyph unicode="&#xb6;" horiz-adv-x="1046" d="M76 972q2 142 92 232q90 88 238 90h584v2v-2v-158h-134v-1600h-168v1600h-128v-1600h-168v1120q-140 2 -228 90q-86 88 -88 226z" />
<glyph unicode="&#xb7;" horiz-adv-x="500" d="M112 600q12 124 136 136q124 -12 136 -136v2v-2q-12 -124 -136 -136q-124 12 -136 136z" />
<glyph unicode="&#xb8;" horiz-adv-x="628" d="M156 -94q0 32 34 102l48 96l76 -48l-14 -28l-10 -22q-14 -26 -14 -44q14 -34 100 -58q88 -22 100 -106v2v-2q2 -158 -260 -166l-28 82q150 4 156 56q-12 44 -94 62t-94 74z" />
<glyph unicode="&#xb9;" horiz-adv-x="1142" d="M162 1180l236 140h122v-664h118v2v-2v-136h-430v136h120v456l-94 -50z" />
<glyph unicode="&#xba;" horiz-adv-x="778" d="M104 1008q8 302 288 312q280 -10 288 -312q-8 -302 -288 -312q-280 10 -288 312zM272 1008q-4 -200 120 -202q124 2 120 202v2v-2q4 200 -120 200t-120 -200z" />
<glyph unicode="&#xbb;" horiz-adv-x="1072" d="M168 264l178 232l-178 232l52 152l316 -330q24 -20 26 -54v2v-2q-2 -32 -26 -56l-316 -328zM536 264l178 232l-178 232l50 152l316 -330q24 -20 26 -54q0 -32 -26 -56l-316 -328z" />
<glyph unicode="&#xbc;" horiz-adv-x="1142" d="M146 1180l236 140h122v-664h118v2v-2v-136h-430v136h120v456l-94 -50zM542 -16l432 1336h198l-432 -1336h-198zM950 244l294 562l160 -82l-226 -428h134v116h184v-116h106v-144h-106v-152h-184v152h-340z" />
<glyph unicode="&#xbd;" horiz-adv-x="1142" d="M138 1180l236 140h122v-664h118v2v-2v-136h-430v136h120v456l-94 -52zM534 -16l430 1336h196l-430 -1336h-196zM1016 594q66 218 298 214q114 0 190 -58q74 -58 78 -174q-8 -134 -108 -202l-190 -140q-38 -38 -54 -84h358l-14 -150h-550v54q4 134 62 210q56 76 130 122 l120 92q46 40 48 94q0 82 -88 84q-80 0 -112 -100z" />
<glyph unicode="&#xbe;" horiz-adv-x="1142" d="M140 1112q64 210 280 208q134 -2 202 -62q66 -58 66 -150q0 -110 -88 -158q124 -56 120 -186v2v-2q-8 -250 -314 -260q-132 2 -250 56l10 160q112 -62 220 -66q138 4 134 110q-4 100 -158 96v126q132 2 134 104q-2 78 -82 80q-76 6 -108 -94zM590 -16l434 1336h194 l-430 -1336h-198zM1010 244l292 564l158 -82l-224 -430h132v114h184v-114h106v-144h-106v-152h-184v152h-336z" />
<glyph unicode="&#xbf;" d="M112 36q-2 300 322 370l42 8l26 174h122l22 -288l-80 -16q-180 -28 -182 -218q4 -168 168 -178q132 0 176 156l234 -46q-76 -318 -428 -326q-194 2 -306 98q-114 98 -116 266zM424 866q14 128 138 142q122 -14 134 -142q-12 -126 -134 -138q-124 12 -138 138v2v-2z" />
<glyph unicode="&#xc0;" horiz-adv-x="1270" d="M42 0l358 1096h-120v200h504l468 -1296h-296l-88 264h-466l-80 -264h-280zM396 1596q0 78 102 84q76 -2 150 -60t148 -148v2v-2l-26 -72q-142 112 -262 112l-76 -12q-32 42 -36 96zM460 456h344l-142 420q-30 86 -38 160h-2q-6 -68 -34 -158z" />
<glyph unicode="&#xc1;" horiz-adv-x="1270" d="M42 0l358 1096h-120v200h504l468 -1296h-296l-88 264h-466l-80 -264h-280zM392 1472q72 90 146 148q76 58 150 60q102 -6 104 -84v2v-2q-6 -54 -38 -96l-74 12q-118 0 -262 -112zM460 456h344l-142 420q-30 86 -38 160h-2q-6 -68 -34 -158z" />
<glyph unicode="&#xc2;" horiz-adv-x="1270" d="M42 0l358 1096h-120v200h504l468 -1296h-296l-88 264h-466l-80 -264h-280zM330 1440l172 230q26 42 74 42h52q44 2 72 -44v2v-2l170 -228h-160l-110 148l-110 -148h-160zM460 456h344l-142 420q-30 86 -38 160h-2q-6 -68 -34 -158z" />
<glyph unicode="&#xc3;" horiz-adv-x="1270" d="M42 0l358 1096h-120v200h504l468 -1296h-296l-88 264h-466l-80 -264h-280zM340 1448q0 88 30 150t124 66q62 -6 108 -38t92 -38q40 -2 62 76v2v-2h84q2 -88 -30 -152q-30 -62 -124 -64q-62 4 -108 36q-46 34 -92 38q-42 4 -64 -74h-82zM460 456h344l-142 420 q-30 86 -38 160h-2q-6 -68 -34 -158z" />
<glyph unicode="&#xc4;" horiz-adv-x="1270" d="M42 0l358 1096h-120v200h504l468 -1296h-296l-88 264h-466l-80 -264h-280zM296 1550q10 112 122 122q110 -10 118 -122v2v-2q-8 -110 -118 -118q-112 8 -122 118zM460 456h344l-142 420q-30 86 -38 160h-2q-6 -68 -34 -158zM648 1550q10 112 120 122q110 -10 120 -122 q-10 -110 -120 -118q-110 8 -120 118z" />
<glyph unicode="&#xc5;" horiz-adv-x="1270" d="M42 0l358 1096h-120v200h504l468 -1296h-296l-88 264h-466l-80 -264h-280zM432 1584q2 80 54 128q52 46 126 48q74 -2 126 -48q52 -48 54 -128q-2 -82 -54 -128q-52 -48 -126 -48t-126 48q-52 46 -54 128zM460 456h344l-142 420q-30 86 -38 160h-2q-6 -68 -34 -158z M538 1584q4 -74 74 -80q72 6 74 80v2v-2q-2 74 -74 80q-70 -6 -74 -80z" />
<glyph unicode="&#xc6;" horiz-adv-x="1852" d="M6 0l614 1088h-128v206h1232v-206h-556v-328h446v-200h-446v-354h602l-18 -206h-872v264h-436l-144 -264h-294zM544 456h336v634l-30 -78l-44 -84l-262 -472v2v-2z" />
<glyph unicode="&#xc7;" horiz-adv-x="1184" d="M72 652q0 282 138 472q136 188 430 194q196 -2 316 -100q120 -100 150 -270l-290 -54q-32 194 -186 202q-128 -2 -190 -118q-64 -116 -64 -310q-2 -216 78 -342q78 -124 256 -128q98 2 198 36t176 82l-16 -224q-70 -48 -180 -80q-110 -34 -238 -36h-2l-2 -18 q12 -34 100 -58q86 -22 100 -106v2v-2q2 -158 -262 -166l-26 82q148 4 156 56q-12 44 -94 62t-94 74q-2 30 24 80q-252 38 -366 220q-112 182 -112 450z" />
<glyph unicode="&#xc8;" horiz-adv-x="1094" d="M144 0v1294h824v-206h-536v-330h434v-206h-434v-346h582l-18 -206h-852zM366 1596q0 78 102 84q74 -2 150 -60q74 -58 146 -148v2v-2l-24 -72q-144 112 -262 112l-76 -12q-32 42 -36 96z" />
<glyph unicode="&#xc9;" horiz-adv-x="1094" d="M144 0v1294h824v-206h-536v-330h434v-206h-434v-346h582l-18 -206h-852zM372 1472q72 90 146 148t150 60q102 -6 102 -84v2v-2q-4 -54 -36 -96l-74 12q-118 0 -262 -112z" />
<glyph unicode="&#xca;" horiz-adv-x="1094" d="M144 0v1294h824v-206h-536v-330h434v-206h-434v-346h582l-18 -206h-852zM294 1440l172 230q26 42 74 42h50q44 2 74 -44v2v-2l170 -228h-162l-108 148l-110 -148h-160z" />
<glyph unicode="&#xcb;" horiz-adv-x="1094" d="M144 0v1294h824v-206h-536v-330h434v-206h-434v-346h582l-18 -206h-852zM264 1550q10 112 122 122q110 -10 118 -122v2v-2q-8 -110 -118 -118q-112 8 -122 118zM608 1550q10 112 120 122q110 -10 120 -122q-10 -110 -120 -118q-110 8 -120 118z" />
<glyph unicode="&#xcc;" horiz-adv-x="784" d="M118 0v160h130v968h-130v166h554v-166h-136v-968h136v-160h-554zM194 1596q0 78 102 84q74 -2 150 -60q74 -58 146 -148v2v-2l-24 -72q-144 112 -262 112l-76 -12q-32 42 -36 96z" />
<glyph unicode="&#xcd;" horiz-adv-x="784" d="M118 0v160h130v968h-130v166h554v-166h-136v-968h136v-160h-554zM194 1472q72 90 146 148t150 60q102 -6 102 -84v2v-2q-4 -54 -36 -96l-74 12q-120 0 -262 -112z" />
<glyph unicode="&#xce;" horiz-adv-x="784" d="M118 0v160h130v968h-130v166h554v-166h-136v-968h136v-160h-554zM122 1440l172 230q26 42 74 42h50q44 2 74 -44v2v-2l170 -228h-162l-108 148l-110 -148h-160z" />
<glyph unicode="&#xcf;" horiz-adv-x="784" d="M104 1550q10 112 122 122q110 -10 118 -122v2v-2q-8 -110 -118 -118q-112 8 -122 118zM118 0v160h130v968h-130v166h554v-166h-136v-968h136v-160h-554zM448 1550q10 112 120 122q110 -10 120 -122q-10 -110 -120 -118q-110 8 -120 118z" />
<glyph unicode="&#xd0;" horiz-adv-x="1096" d="M-14 544v206h174v338h-124v206h516q310 6 478 -106q220 -142 218 -548q-6 -460 -320 -578q-154 -62 -368 -62h-400v544h-174zM448 206h130q152 2 238 58q140 104 128 390v2v-2q6 282 -122 372q-92 64 -270 62h-104v-338h200v-206h-200v-338z" />
<glyph unicode="&#xd1;" horiz-adv-x="1336" d="M144 0v1296h182l560 -722q50 -60 66 -110v832h240v-1296h-188l-558 720q-44 56 -62 110v-830h-240zM418 1448q0 88 30 150t124 66q62 -6 108 -38t92 -38q40 -2 62 76v2v-2h84q2 -88 -30 -152q-30 -62 -124 -64q-62 4 -108 36q-46 34 -92 38q-42 4 -64 -74h-82z" />
<glyph unicode="&#xd2;" horiz-adv-x="1282" d="M72 648q0 304 142 486q142 180 426 184q284 -4 426 -184q142 -182 142 -486t-142 -486t-426 -186q-284 4 -426 186t-142 486zM376 648q10 -464 264 -450q254 -14 264 450q-10 462 -264 448q-254 14 -264 -448zM442 1596q2 78 104 84q74 -2 150 -60q74 -58 146 -148v2v-2 l-24 -72q-144 112 -262 112l-76 -12q-32 42 -38 96z" />
<glyph unicode="&#xd3;" horiz-adv-x="1282" d="M72 648q0 304 142 486q142 180 426 184q284 -4 426 -184q142 -182 142 -486t-142 -486t-426 -186q-284 4 -426 186t-142 486zM376 648q10 -464 264 -450q254 -14 264 450q-10 462 -264 448q-254 14 -264 -448zM442 1472q74 90 148 148t150 60q102 -6 102 -84v2v-2 q-4 -54 -36 -96l-74 12q-120 0 -262 -112z" />
<glyph unicode="&#xd4;" horiz-adv-x="1282" d="M72 648q0 304 142 486q142 180 426 184q284 -4 426 -184q142 -182 142 -486t-142 -486t-426 -186q-284 4 -426 186t-142 486zM372 1440l172 230q26 42 72 42h52q44 2 74 -44v2v-2l170 -228h-162l-108 148l-112 -148h-158zM376 648q10 -464 264 -450q254 -14 264 450 q-10 462 -264 448q-254 14 -264 -448z" />
<glyph unicode="&#xd5;" horiz-adv-x="1282" d="M72 648q0 304 142 486q142 180 426 184q284 -4 426 -184q142 -182 142 -486t-142 -486t-426 -186q-284 4 -426 186t-142 486zM376 648q10 -464 264 -450q254 -14 264 450q-10 462 -264 448q-254 14 -264 -448zM392 1448q-2 88 28 150q32 62 126 66q60 -6 108 -38 q46 -32 92 -38q40 -2 62 76v2v-2h84q0 -88 -30 -152q-30 -62 -124 -64q-64 4 -110 36q-44 34 -90 38q-42 4 -64 -74h-82z" />
<glyph unicode="&#xd6;" horiz-adv-x="1282" d="M72 648q0 304 142 486q142 180 426 184q284 -4 426 -184q142 -182 142 -486t-142 -486t-426 -186q-284 4 -426 186t-142 486zM344 1550q10 112 122 122q110 -10 118 -122v2v-2q-8 -110 -118 -118q-112 8 -122 118zM376 648q10 -464 264 -450q254 -14 264 450 q-10 462 -264 448q-254 14 -264 -448zM696 1550q10 112 120 122q110 -10 120 -122q-10 -110 -120 -118q-110 8 -120 118z" />
<glyph unicode="&#xd7;" horiz-adv-x="944" d="M222 462l190 192l-186 188l136 140l190 -190l190 192v2v-2l136 -134l-192 -192l186 -186l-136 -140l-188 188l-194 -192z" />
<glyph unicode="&#xd8;" horiz-adv-x="1282" d="M72 648q0 304 142 486q142 180 426 184q122 0 216 -34l72 156h160l-104 -228q224 -180 224 -564q0 -304 -142 -486t-426 -186q-112 0 -202 32l-70 -152h-162l100 218q-234 180 -234 574zM376 648q2 -200 50 -306v2v-2l332 724q-50 30 -118 30q-254 14 -264 -448zM532 224 q50 -26 108 -26q254 -14 264 450q0 186 -44 292z" />
<glyph unicode="&#xd9;" horiz-adv-x="1300" d="M146 468v828h286v-816q-2 -148 48 -208q52 -70 176 -72q124 2 174 68q58 82 52 210v818h278v-818q4 -214 -92 -340q-122 -160 -418 -162q-272 -2 -400 138q-112 118 -104 354zM452 1596q0 78 102 84q74 -2 150 -60q74 -58 146 -148v2v-2l-24 -72q-144 112 -262 112 l-76 -12q-32 42 -36 96z" />
<glyph unicode="&#xda;" horiz-adv-x="1300" d="M146 468v828h286v-816q-2 -148 48 -208q52 -70 176 -72q124 2 174 68q58 82 52 210v818h278v-818q4 -214 -92 -340q-122 -160 -418 -162q-272 -2 -400 138q-112 118 -104 354zM460 1472q72 90 146 148t150 60q102 -6 102 -84v2v-2q-4 -54 -36 -96l-74 12 q-118 0 -262 -112z" />
<glyph unicode="&#xdb;" horiz-adv-x="1300" d="M146 468v828h286v-816q-2 -148 48 -208q52 -70 176 -72q124 2 174 68q58 82 52 210v818h278v-818q4 -214 -92 -340q-122 -160 -418 -162q-272 -2 -400 138q-112 118 -104 354zM380 1440l172 230q26 42 74 42h50q44 2 74 -44v2v-2l170 -228h-162l-108 148l-110 -148h-160z " />
<glyph unicode="&#xdc;" horiz-adv-x="1300" d="M146 468v828h286v-816q-2 -148 48 -208q52 -70 176 -72q124 2 174 68q58 82 52 210v818h278v-818q4 -214 -92 -340q-122 -160 -418 -162q-272 -2 -400 138q-112 118 -104 354zM360 1550q10 112 122 122q110 -10 118 -122v2v-2q-8 -110 -118 -118q-112 8 -122 118z M712 1550q10 112 120 122q110 -10 120 -122q-10 -110 -120 -118q-110 8 -120 118z" />
<glyph unicode="&#xdd;" horiz-adv-x="1202" d="M8 1296h318l248 -486q42 -76 52 -144h2q8 62 48 140l240 490h280l-452 -850v-446h-288v450zM422 1472q72 90 148 148q74 58 150 60q102 -6 102 -84v2v-2q-4 -54 -38 -96l-72 12q-120 0 -262 -112z" />
<glyph unicode="&#xde;" horiz-adv-x="1096" d="M146 0v1296h286v-224h158q248 2 384 -82q166 -98 170 -344q-4 -262 -190 -360q-134 -72 -354 -70h-168v-216h-286zM432 400h114q148 -4 226 44q76 48 78 198v2v-2q0 142 -86 198q-72 42 -206 40h-126v-480z" />
<glyph unicode="&#xdf;" horiz-adv-x="1350" d="M22 800v192h154v10q6 218 146 324t360 104q204 2 336 -106q130 -106 134 -328l-6 -96l-16 -90l-84 10l-92 4q-174 -4 -170 -100q10 -72 130 -100q118 -28 238 -90t128 -234v2v-2q-2 -152 -108 -234q-104 -82 -288 -82q-192 0 -348 68v210q76 -42 164 -64l162 -24 q162 4 162 100q-8 84 -128 110q-120 28 -238 86q-120 56 -130 230q2 132 100 212q98 78 264 80l4 34q2 206 -212 214q-126 0 -190 -80q-48 -72 -46 -214v-946h-272v800h-154z" />
<glyph unicode="&#xe0;" horiz-adv-x="1110" d="M88 314q2 162 106 248q104 84 282 84q118 -2 204 -32v26q4 92 -38 140q-48 50 -170 52q-150 0 -296 -72v182q146 64 340 66q236 2 348 -104q90 -84 88 -252v-418q0 -60 48 -60q46 4 80 26l-10 -158q-68 -48 -182 -52q-134 0 -176 108q-92 -110 -272 -114q-160 2 -256 86 q-94 86 -96 244zM338 1276q0 78 102 84q76 -2 150 -60q76 -58 148 -148v2v-2l-24 -72q-144 112 -262 112l-76 -12q-32 42 -38 96zM360 326q8 -160 158 -162q78 2 120 46t42 122v132q-56 22 -142 24q-180 -12 -178 -162z" />
<glyph unicode="&#xe1;" horiz-adv-x="1110" d="M88 314q2 162 106 248q104 84 282 84q118 -2 204 -32v26q4 92 -38 140q-48 50 -170 52q-150 0 -296 -72v182q146 64 340 66q236 2 348 -104q90 -84 88 -252v-418q0 -60 48 -60q46 4 80 26l-10 -158q-68 -48 -182 -52q-134 0 -176 108q-92 -110 -272 -114q-160 2 -256 86 q-94 86 -96 244zM324 1152q72 90 148 148q74 58 150 60q100 -6 102 -84v2v-2q-6 -54 -38 -96l-74 12q-118 0 -262 -112zM360 326q8 -160 158 -162q78 2 120 46t42 122v132q-56 22 -142 24q-180 -12 -178 -162z" />
<glyph unicode="&#xe2;" horiz-adv-x="1110" d="M88 314q2 162 106 248q104 84 282 84q118 -2 204 -32v26q4 92 -38 140q-48 50 -170 52q-150 0 -296 -72v182q146 64 340 66q236 2 348 -104q90 -84 88 -252v-418q0 -60 48 -60q46 4 80 26l-10 -158q-68 -48 -182 -52q-134 0 -176 108q-92 -110 -272 -114q-160 2 -256 86 q-94 86 -96 244zM282 1104l172 222q26 42 72 42h52q44 2 74 -44v2v-2l170 -220h-162l-108 142l-112 -142h-158zM360 326q8 -160 158 -162q78 2 120 46t42 122v132q-56 22 -142 24q-180 -12 -178 -162z" />
<glyph unicode="&#xe3;" horiz-adv-x="1110" d="M88 314q2 162 106 248q104 84 282 84q118 -2 204 -32v26q4 92 -38 140q-48 50 -170 52q-150 0 -296 -72v182q146 64 340 66q236 2 348 -104q90 -84 88 -252v-418q0 -60 48 -60q46 4 80 26l-10 -158q-68 -48 -182 -52q-134 0 -176 108q-92 -110 -272 -114q-160 2 -256 86 q-94 86 -96 244zM296 1128q-2 88 28 150t126 66q60 -6 108 -38q46 -32 92 -38q40 -2 62 76v2v-2h84q0 -88 -30 -152q-30 -62 -124 -64q-64 4 -110 36q-46 34 -92 38q-40 4 -62 -74h-82zM360 326q8 -160 158 -162q78 2 120 46t42 122v132q-56 22 -142 24q-180 -12 -178 -162z " />
<glyph unicode="&#xe4;" horiz-adv-x="1110" d="M88 314q2 162 106 248q104 84 282 84q118 -2 204 -32v26q4 92 -38 140q-48 50 -170 52q-150 0 -296 -72v182q146 64 340 66q236 2 348 -104q90 -84 88 -252v-418q0 -60 48 -60q46 4 80 26l-10 -158q-68 -48 -182 -52q-134 0 -176 108q-92 -110 -272 -114q-160 2 -256 86 q-94 86 -96 244zM248 1254q10 112 122 122q110 -10 118 -122v2v-2q-8 -110 -118 -118q-112 8 -122 118zM360 326q8 -160 158 -162q78 2 120 46t42 122v132q-56 22 -142 24q-180 -12 -178 -162zM592 1254q10 112 120 122q110 -10 120 -122q-10 -110 -120 -118 q-110 8 -120 118z" />
<glyph unicode="&#xe5;" horiz-adv-x="1110" d="M88 314q2 162 106 248q104 84 282 84q118 -2 204 -32v26q4 92 -38 140q-48 50 -170 52q-150 0 -296 -72v182q146 64 340 66q236 2 348 -104q90 -84 88 -252v-418q0 -60 48 -60q46 4 80 26l-10 -158q-68 -48 -182 -52q-134 0 -176 108q-92 -110 -272 -114q-160 2 -256 86 q-94 86 -96 244zM360 326q8 -160 158 -162q78 2 120 46t42 122v132q-56 22 -142 24q-180 -12 -178 -162zM360 1272q2 80 54 128q52 46 126 48q74 -2 126 -48q52 -48 54 -128q-2 -82 -54 -128q-52 -48 -126 -48t-126 48q-52 46 -54 128zM466 1272q4 -74 74 -80q72 6 74 80v2 v-2q-2 74 -74 80q-70 -6 -74 -80z" />
<glyph unicode="&#xe6;" horiz-adv-x="1670" d="M88 310q2 166 106 252q104 84 282 84q118 -2 204 -32v26q4 92 -38 140q-48 50 -170 52q-150 0 -296 -72v182q146 64 340 66q224 0 338 -98q116 94 290 98q204 -4 326 -124q120 -122 122 -332v6q10 -156 -124 -150h-512q34 -234 266 -232q184 6 328 94l-12 -184 q-156 -102 -370 -102q-248 2 -370 144q-116 -138 -358 -144q-160 0 -256 84q-94 84 -96 242zM360 322q8 -160 158 -162q78 0 120 50q42 42 42 122v2v-2v132q-56 20 -142 24q-180 -12 -178 -166zM952 566h356q22 0 20 20q-6 232 -184 238q-168 10 -192 -258z" />
<glyph unicode="&#xe7;" horiz-adv-x="996" d="M64 492q2 238 122 376q120 136 340 140q166 -2 276 -82q102 -82 132 -234l-248 -50q-24 176 -156 182q-100 -4 -146 -90q-48 -86 -48 -224q-4 -334 260 -334q166 4 306 94l-10 -192q-140 -88 -348 -94h-14l-4 -20q14 -36 100 -58q88 -24 100 -106v2v-2q2 -160 -260 -166 l-28 82q150 4 156 54q-12 44 -94 62q-82 20 -94 76q0 30 26 84q-360 66 -368 500z" />
<glyph unicode="&#xe8;" horiz-adv-x="1056" d="M64 494q4 244 130 378q124 134 336 136q208 -4 330 -124t124 -326q8 -156 -124 -150h-520q36 -234 272 -232q184 4 328 98l-12 -186q-156 -104 -372 -104q-240 2 -366 140q-124 136 -126 370zM336 566h366q20 0 18 20q-6 232 -190 238q-170 6 -194 -258zM346 1276 q2 78 104 84q74 -2 150 -60q74 -58 146 -148v2v-2l-24 -72q-144 112 -262 112l-76 -12q-32 42 -38 96z" />
<glyph unicode="&#xe9;" horiz-adv-x="1056" d="M64 494q4 244 130 378q124 134 336 136q208 -4 330 -124t124 -326q8 -156 -124 -150h-520q36 -234 272 -232q184 4 328 98l-12 -186q-156 -104 -372 -104q-240 2 -366 140q-124 136 -126 370zM318 1152q72 90 146 148q76 58 150 60q102 -6 104 -84v2v-2q-6 -54 -38 -96 l-74 12q-118 0 -262 -112zM336 566h366q20 0 18 20q-6 232 -190 238q-170 6 -194 -258z" />
<glyph unicode="&#xea;" horiz-adv-x="1056" d="M64 494q4 244 130 378q124 134 336 136q208 -4 330 -124t124 -326q8 -156 -124 -150h-520q36 -234 272 -232q184 4 328 98l-12 -186q-156 -104 -372 -104q-240 2 -366 140q-124 136 -126 370zM264 1104l172 222q26 42 74 42h52q44 2 74 -44v2v-2l170 -220h-162l-108 142 l-112 -142h-160zM336 566h366q20 0 18 20q-6 232 -190 238q-170 6 -194 -258z" />
<glyph unicode="&#xeb;" horiz-adv-x="1056" d="M64 494q4 244 130 378q124 134 336 136q208 -4 330 -124t124 -326q8 -156 -124 -150h-520q36 -234 272 -232q184 4 328 98l-12 -186q-156 -104 -372 -104q-240 2 -366 140q-124 136 -126 370zM240 1254q10 112 122 122q110 -10 118 -122v2v-2q-8 -110 -118 -118 q-112 8 -122 118zM336 566h366q20 0 18 20q-6 232 -190 238q-170 6 -194 -258zM592 1254q10 112 120 122q110 -10 120 -122q-10 -110 -120 -118q-110 8 -120 118z" />
<glyph unicode="&#xec;" horiz-adv-x="628" d="M48 798v194h392v-766q0 -64 50 -62q44 4 78 26l-8 -156q-64 -44 -180 -50q-126 0 -174 70q-40 58 -38 160v584h-120zM80 1276q0 78 102 84q76 -2 150 -60q76 -58 148 -148v2v-2l-24 -72q-144 112 -262 112l-76 -12q-34 42 -38 96z" />
<glyph unicode="&#xed;" horiz-adv-x="628" d="M48 798v194h392v-766q0 -64 50 -62q44 4 78 26l-8 -156q-64 -44 -180 -50q-126 0 -174 70q-40 58 -38 160v584h-120zM80 1152q72 90 148 148q74 58 150 60q102 -6 102 -84v2v-2q-4 -54 -38 -96l-72 12q-120 0 -264 -112z" />
<glyph unicode="&#xee;" horiz-adv-x="628" d="M18 1104l172 222q28 42 74 42h52q44 2 74 -44v2v-2l170 -220h-162l-108 142l-112 -142h-160zM48 798v194h392v-766q0 -64 50 -62q44 4 78 26l-8 -156q-64 -44 -180 -50q-126 0 -174 70q-40 58 -38 160v584h-120z" />
<glyph unicode="&#xef;" horiz-adv-x="628" d="M8 1254q10 112 122 122q110 -10 118 -122v2v-2q-8 -110 -118 -118q-112 8 -122 118zM48 798v194h392v-766q0 -64 50 -62q44 4 78 26l-8 -156q-64 -44 -180 -50q-126 0 -174 70q-40 58 -38 160v584h-120zM352 1254q10 112 120 122q110 -10 120 -122q-10 -110 -120 -118 q-110 8 -120 118z" />
<glyph unicode="&#xf0;" horiz-adv-x="1096" d="M96 446q4 212 120 322q114 110 306 112q148 -8 244 -58q-16 160 -114 260l-48 -108l-102 40l54 126l-188 28l24 152l228 -26l56 130l106 -42l-54 -126q334 -154 336 -678q2 -264 -118 -430q-120 -168 -380 -172q-232 4 -350 136q-118 130 -120 334zM368 444 q12 -262 202 -268q220 -2 216 356v2v-2l-4 120q-80 46 -192 52q-218 -6 -222 -260z" />
<glyph unicode="&#xf1;" horiz-adv-x="1166" d="M34 792v196h280l50 -130q100 142 318 148q178 0 272 -98q92 -100 86 -266v-642h-272v600q4 92 -32 144q-40 52 -130 54q-98 -4 -140 -62q-46 -62 -42 -172v-564h-272v792h-118zM340 1128q0 88 30 150t124 66q62 -6 108 -38t92 -38q40 -2 62 76v2v-2h84q2 -88 -30 -152 q-30 -62 -124 -64q-62 4 -108 36q-46 34 -92 38q-42 4 -64 -74h-82z" />
<glyph unicode="&#xf2;" horiz-adv-x="1090" d="M64 494q2 238 124 374t356 138q234 -2 358 -138q122 -136 122 -374t-122 -372q-124 -136 -358 -138q-234 2 -356 138q-122 134 -124 372zM336 494q2 -174 56 -248q56 -74 152 -72q98 -2 152 72q56 74 56 248q-8 338 -208 322q-200 16 -208 -322zM362 1276q2 78 104 84 q74 -2 150 -60q74 -58 146 -148v2v-2l-24 -72q-144 112 -262 112l-76 -12q-32 42 -38 96z" />
<glyph unicode="&#xf3;" horiz-adv-x="1090" d="M64 494q2 238 124 374t356 138q234 -2 358 -138q122 -136 122 -374t-122 -372q-124 -136 -358 -138q-234 2 -356 138q-122 134 -124 372zM324 1152q72 90 148 148q74 58 150 60q100 -6 102 -84v2v-2q-6 -54 -38 -96l-74 12q-118 0 -262 -112zM336 494q2 -174 56 -248 q56 -74 152 -72q98 -2 152 72q56 74 56 248q-8 338 -208 322q-200 16 -208 -322z" />
<glyph unicode="&#xf4;" horiz-adv-x="1090" d="M64 494q2 238 124 374t356 138q234 -2 358 -138q122 -136 122 -374t-122 -372q-124 -136 -358 -138q-234 2 -356 138q-122 134 -124 372zM274 1104l172 222q28 42 74 42h52q44 2 74 -44v2v-2l170 -220h-162l-108 142l-112 -142h-160zM336 494q2 -174 56 -248 q56 -74 152 -72q98 -2 152 72q56 74 56 248q-8 338 -208 322q-200 16 -208 -322z" />
<glyph unicode="&#xf5;" horiz-adv-x="1090" d="M64 494q2 238 124 374t356 138q234 -2 358 -138q122 -136 122 -374t-122 -372q-124 -136 -358 -138q-234 2 -356 138q-122 134 -124 372zM296 1128q-2 88 28 150t126 66q60 -6 108 -38q46 -32 92 -38q40 -2 62 76v2v-2h84q0 -88 -30 -152q-30 -62 -124 -64q-64 4 -110 36 q-46 34 -92 38q-40 4 -62 -74h-82zM336 494q2 -174 56 -248q56 -74 152 -72q98 -2 152 72q56 74 56 248q-8 338 -208 322q-200 16 -208 -322z" />
<glyph unicode="&#xf6;" horiz-adv-x="1090" d="M64 494q2 238 124 374t356 138q234 -2 358 -138q122 -136 122 -374t-122 -372q-124 -136 -358 -138q-234 2 -356 138q-122 134 -124 372zM248 1254q10 112 122 122q110 -10 118 -122v2v-2q-8 -110 -118 -118q-112 8 -122 118zM336 494q2 -174 56 -248q56 -74 152 -72 q98 -2 152 72q56 74 56 248q-8 338 -208 322q-200 16 -208 -322zM600 1254q10 112 120 122q110 -10 120 -122q-10 -110 -120 -118q-110 8 -120 118z" />
<glyph unicode="&#xf7;" horiz-adv-x="1096" d="M180 560v192h740v-192h-740zM424 364q12 120 132 132q120 -12 132 -132v2v-2q-12 -120 -132 -132q-120 12 -132 132zM424 948q12 120 132 130q120 -10 132 -130q-12 -120 -132 -132q-120 12 -132 132z" />
<glyph unicode="&#xf8;" horiz-adv-x="1094" d="M66 496q0 240 124 374q126 134 358 138l154 -20l60 140h136l-82 -188q212 -128 216 -444q-2 -238 -126 -374t-358 -138l-156 20l-64 -148h-138l86 196q-208 132 -210 444zM344 496q0 -140 36 -214v2v-2l242 522l-74 12q-200 12 -204 -320zM474 188l74 -12 q200 -12 206 320q-2 144 -40 220z" />
<glyph unicode="&#xf9;" horiz-adv-x="1176" d="M120 348v644h272v-602q-4 -94 34 -144q40 -54 130 -56q98 4 140 64q44 62 40 172v566h272v-758q0 -64 50 -62q44 4 78 26l-10 -154q-72 -50 -182 -54q-128 0 -176 104q-102 -106 -288 -110q-180 0 -274 98q-90 100 -86 266zM376 1276q0 78 102 84q76 -2 150 -60t146 -148 v2v-2l-24 -72q-144 112 -262 112l-76 -12q-32 42 -36 96z" />
<glyph unicode="&#xfa;" horiz-adv-x="1176" d="M120 348v644h272v-602q-4 -94 34 -144q40 -54 130 -56q98 4 140 64q44 62 40 172v566h272v-758q0 -64 50 -62q44 4 78 26l-10 -154q-72 -50 -182 -54q-128 0 -176 104q-102 -106 -288 -110q-180 0 -274 98q-90 100 -86 266zM376 1152q72 90 146 148t150 60 q102 -6 102 -84v2v-2q-4 -54 -36 -96l-74 12q-118 0 -262 -112z" />
<glyph unicode="&#xfb;" horiz-adv-x="1176" d="M120 348v644h272v-602q-4 -94 34 -144q40 -54 130 -56q98 4 140 64q44 62 40 172v566h272v-758q0 -64 50 -62q44 4 78 26l-10 -154q-72 -50 -182 -54q-128 0 -176 104q-102 -106 -288 -110q-180 0 -274 98q-90 100 -86 266zM302 1104l172 222q26 42 74 42h50q46 2 74 -44 v2v-2l170 -220h-162l-108 142l-110 -142h-160z" />
<glyph unicode="&#xfc;" horiz-adv-x="1176" d="M120 348v644h272v-602q-4 -94 34 -144q40 -54 130 -56q98 4 140 64q44 62 40 172v566h272v-758q0 -64 50 -62q44 4 78 26l-10 -154q-72 -50 -182 -54q-128 0 -176 104q-102 -106 -288 -110q-180 0 -274 98q-90 100 -86 266zM272 1254q10 112 122 122q110 -10 118 -122v2 v-2q-8 -110 -118 -118q-112 8 -122 118zM624 1254q10 112 120 122q110 -10 120 -122q-10 -110 -120 -118q-110 8 -120 118z" />
<glyph unicode="&#xfd;" horiz-adv-x="1140" d="M120 348v644h272v-602q-4 -94 34 -144q40 -54 130 -56q98 4 140 64q44 62 40 172v566h272v-952q4 -238 -94 -340q-116 -134 -368 -132l-204 24q-102 24 -176 64l16 202q152 -88 326 -92q114 0 172 54q60 54 56 194v54q-98 -78 -256 -84q-180 0 -274 98q-90 100 -86 266z M376 1152q72 90 146 148t150 60q102 -6 102 -84v2v-2q-4 -54 -36 -96l-74 12q-118 0 -262 -112z" />
<glyph unicode="&#xfe;" horiz-adv-x="1096" d="M144 -408v1808h272v-488q96 94 248 94q206 -4 304 -142t96 -368q2 -226 -96 -368q-98 -140 -304 -144q-152 2 -248 98v-490h-272zM416 424q-4 -110 40 -168q48 -66 140 -66q200 6 196 306v2v-2q4 300 -196 304q-92 0 -140 -66q-44 -56 -40 -164v-146z" />
<glyph unicode="&#xff;" horiz-adv-x="1140" d="M120 348v644h272v-602q-4 -94 34 -144q40 -54 130 -56q98 4 140 64q44 62 40 172v566h272v-952q4 -238 -94 -340q-116 -134 -368 -132l-204 24q-102 24 -176 64l16 202q152 -88 326 -92q114 0 172 54q60 54 56 194v54q-98 -78 -256 -84q-180 0 -274 98q-90 100 -86 266z M272 1254q10 112 122 122q110 -10 118 -122v2v-2q-8 -110 -118 -118q-112 8 -122 118zM624 1254q10 112 120 122q110 -10 120 -122q-10 -110 -120 -118q-110 8 -120 118z" />
<glyph unicode="&#x152;" horiz-adv-x="2376" d="M1426 0v1294h824v-206h-536v-330h434v-206h-434v-346v2v-2h582l-18 -206h-852zM72 648q0 304 142 486q142 180 426 184q284 -4 426 -184q142 -182 142 -486t-142 -486t-426 -186q-284 4 -426 186t-142 486zM376 648q10 -450 249 -450h15h15q240 0 249 450v2v-2 q-10 448 -249 448h-15h-15q-239 0 -249 -448z" />
<glyph unicode="&#x153;" horiz-adv-x="2146" d="M1154 494q4 244 130 378q124 134 336 136q208 -4 330 -124t124 -326v-17q0 -133 -114 -133h-10h-520q36 -232 268 -232h4q184 4 328 98l-12 -186q-156 -104 -372 -104q-240 2 -366 140q-124 136 -126 370zM1426 566h366q20 0 18 20v2v-2q-6 232 -190 238h-7 q-164 0 -187 -258zM64 494q2 238 124 374t356 138q234 -2 358 -138q122 -136 122 -374t-122 -372q-124 -136 -358 -138q-234 2 -356 138q-122 134 -124 372zM336 494q2 -174 56 -248q55 -72 147 -72h5h5q94 0 147 72q56 74 56 248v2v-2q-8 323 -190 323q-9 0 -18 -1 q-9 1 -18 1q-182 0 -190 -323z" />
<glyph unicode="&#x178;" horiz-adv-x="1202" d="M624 1558q10 112 122 122q110 -10 118 -122v2v-2q-8 -110 -118 -118q-112 8 -122 118zM968 1558q10 112 120 122q110 -10 120 -122q-10 -110 -120 -118q-110 8 -120 118zM8 1296h318l248 -486q42 -76 52 -144h2q8 62 48 140l240 490v2v-2h280l-452 -850v-446h-288v450z " />
<glyph unicode="&#x2c6;" horiz-adv-x="628" d="M46 1104l172 222q26 42 74 42h50q46 2 74 -44v2v-2l170 -220h-162l-108 142l-110 -142h-160z" />
<glyph unicode="&#x2dc;" horiz-adv-x="628" d="M66 1128q-2 88 30 150q30 62 124 66q62 -6 108 -38t92 -38q40 -2 62 76v2v-2h84q0 -88 -30 -152q-30 -62 -124 -64q-62 4 -108 36q-46 34 -92 38q-42 4 -64 -74h-82z" />
<glyph unicode="&#x2000;" horiz-adv-x="880" />
<glyph unicode="&#x2001;" horiz-adv-x="1760" />
<glyph unicode="&#x2002;" horiz-adv-x="880" />
<glyph unicode="&#x2003;" horiz-adv-x="1760" />
<glyph unicode="&#x2004;" horiz-adv-x="586" />
<glyph unicode="&#x2005;" horiz-adv-x="440" />
<glyph unicode="&#x2006;" horiz-adv-x="292" />
<glyph unicode="&#x2007;" horiz-adv-x="292" />
<glyph unicode="&#x2008;" horiz-adv-x="220" />
<glyph unicode="&#x2009;" horiz-adv-x="352" />
<glyph unicode="&#x200a;" horiz-adv-x="96" />
<glyph unicode="&#x2010;" horiz-adv-x="782" d="M126 392v206h534v2v-2v-206h-534z" />
<glyph unicode="&#x2011;" horiz-adv-x="782" d="M126 392v206h534v2v-2v-206h-534z" />
<glyph unicode="&#x2012;" horiz-adv-x="782" d="M126 392v206h534v2v-2v-206h-534z" />
<glyph unicode="&#x2013;" horiz-adv-x="1024" d="M0 456v158h1024v2v-2v-158h-1024z" />
<glyph unicode="&#x2014;" horiz-adv-x="2048" d="M0 456v158h2048v2v-2v-158h-2048z" />
<glyph unicode="&#x2018;" horiz-adv-x="488" d="M90 930q0 110 70 220q70 108 184 170v2v-2l70 -80l-100 -102q-40 -58 -48 -106q100 -26 110 -132q-6 -120 -138 -132q-144 6 -148 162z" />
<glyph unicode="&#x2019;" horiz-adv-x="488" d="M66 848q60 42 100 102q40 58 50 106q-102 26 -110 130q4 120 136 134q144 -8 150 -162v2v-2q-2 -112 -72 -222q-68 -110 -182 -168z" />
<glyph unicode="&#x201a;" horiz-adv-x="488" d="M66 -272q60 44 100 104t50 108q-102 26 -110 132q4 122 136 136q144 -8 150 -164v2v-2q-2 -114 -72 -224q-68 -112 -182 -172z" />
<glyph unicode="&#x201c;" horiz-adv-x="836" d="M90 930q0 110 70 220q70 108 184 170v2v-2l74 -80q-62 -44 -104 -102q-40 -58 -48 -106q100 -26 110 -132q-6 -120 -138 -132q-144 6 -148 162zM442 930q0 110 70 220q70 108 184 170l70 -80q-58 -44 -100 -102q-40 -58 -48 -106q100 -26 110 -132q-6 -120 -138 -132 q-144 6 -148 162z" />
<glyph unicode="&#x201d;" horiz-adv-x="836" d="M66 848q60 42 100 102q40 58 50 106q-102 26 -110 130q4 120 136 134q144 -8 150 -162v2v-2q-2 -112 -72 -222q-68 -110 -182 -168zM416 848q62 42 102 102q42 58 50 106q-102 26 -110 130q4 120 136 134q144 -8 150 -162q-2 -112 -72 -222q-68 -110 -182 -168z" />
<glyph unicode="&#x201e;" horiz-adv-x="836" d="M66 -272q60 44 100 104t50 108q-102 26 -110 132q4 122 136 136q144 -8 150 -164v2v-2q-2 -114 -72 -224q-68 -112 -182 -172zM416 -272q62 44 102 104q42 60 50 108q-102 26 -110 132q4 122 136 136q144 -8 150 -164q-2 -114 -72 -224q-68 -112 -182 -172z" />
<glyph unicode="&#x2022;" horiz-adv-x="742" d="M124 642q2 106 72 174q70 70 176 72q104 -2 174 -72q70 -68 72 -174v2v-2q-2 -106 -72 -176q-70 -72 -174 -74q-106 2 -176 74q-70 70 -72 176z" />
<glyph unicode="&#x2026;" horiz-adv-x="1374" d="M120 124q14 128 138 140q122 -12 134 -140v2v-2q-12 -128 -134 -140q-124 12 -138 140zM552 124q12 128 136 140q124 -12 136 -140q-12 -128 -136 -140q-124 12 -136 140zM984 124q12 128 136 140q124 -12 136 -140q-12 -128 -136 -140q-124 12 -136 140z" />
<glyph unicode="&#x202f;" horiz-adv-x="352" />
<glyph unicode="&#x2039;" horiz-adv-x="704" d="M144 496q2 32 26 54l316 330l52 -152l-180 -232v2v-2l180 -232l-52 -152l-316 328q-26 24 -26 56z" />
<glyph unicode="&#x203a;" horiz-adv-x="704" d="M168 264l178 232l-178 232l52 152l316 -330q24 -20 26 -54v2v-2q-2 -32 -26 -56l-316 -328z" />
<glyph unicode="&#x205f;" horiz-adv-x="440" />
<glyph unicode="&#x20ac;" horiz-adv-x="1142" d="M-20 432v150h132q-4 28 -2 56l2 42h-132v150h144q34 218 166 352q130 132 360 136q176 0 294 -96q116 -96 146 -272v2v-2l-274 -52q-14 74 -52 134t-124 64q-110 -6 -162 -88q-54 -82 -68 -178h248v-150h-260v-12l2 -86h258v-150h-234q56 -226 292 -234q192 10 356 116 l-16 -222q-84 -58 -190 -86l-208 -30q-224 2 -356 124q-132 120 -172 332h-150z" />
<glyph unicode="&#x2122;" horiz-adv-x="1520" d="M66 1176v120h558v2v-2v-120h-192v-544h-166v544h-200zM690 632v664h160l202 -438l188 438h152v-664h-142v366l-164 -366h-84l-170 372v-372h-142z" />
<glyph unicode="&#xe000;" horiz-adv-x="990" d="M0 990h990v-990h-990v990z" />
<glyph unicode="&#xfb01;" horiz-adv-x="1364" d="M786 798v194h390v-766q0 -62 47 -62h3q44 4 78 26v2v-2l-8 -156q-64 -44 -180 -50q-126 0 -174 70q-40 58 -38 160v584h-118zM882 1262q12 138 152 152q136 -14 148 -152q-10 -138 -146 -152q-140 14 -154 152zM20 800v192h156v90v22q0 146 74 230q84 88 266 90 q120 -4 222 -38v2v-2v-178q-76 28 -166 30q-68 0 -96 -38q-28 -32 -28 -108v-100h242v-192h-242v-800h-272v800h-156z" />
<glyph unicode="&#xfb02;" horiz-adv-x="1364" d="M762 1206v194h390v-1174q0 -62 47 -62h3q44 4 78 26v2v-2l-8 -156q-64 -44 -180 -50q-126 0 -174 70q-40 58 -38 160v992h-118zM20 800v192h156v90v22q0 146 74 230q84 88 266 90q120 -4 222 -38v2v-2v-178q-76 28 -166 30q-68 0 -96 -38q-28 -32 -28 -108v-100h242v-192 h-242v-800h-272v800h-156z" />
<glyph unicode="&#xfb03;" horiz-adv-x="2100" d="M1522 798v194h390v-766q0 -62 47 -62h3q44 4 78 26v2v-2l-8 -156q-64 -44 -180 -50q-126 0 -174 70q-40 58 -38 160v584h-118zM1618 1262q12 138 152 152q136 -14 148 -152q-10 -138 -146 -152q-140 14 -154 152zM756 800v192h156v90v22q0 146 74 230q84 88 266 90 q120 -4 222 -38v2v-2v-178q-76 28 -166 30q-68 0 -96 -38q-28 -32 -28 -108v-100h242v-192h-242v-800h-272v800h-156zM20 800v192h156v90v22q0 146 74 230q84 88 266 90q120 -4 222 -38v2v-2v-178q-76 28 -166 30q-68 0 -96 -38q-28 -32 -28 -108v-100h242v-192h-242v-800 h-272v800h-156z" />
<glyph unicode="&#xfb04;" horiz-adv-x="2100" d="M1498 1206v194h390v-1174q0 -62 47 -62h3q44 4 78 26v2v-2l-8 -156q-64 -44 -180 -50q-126 0 -174 70q-40 58 -38 160v992h-118zM756 800v192h156v90v22q0 146 74 230q84 88 266 90q120 -4 222 -38v2v-2v-178q-76 28 -166 30q-68 0 -96 -38q-28 -32 -28 -108v-100h242 v-192h-242v-800h-272v800h-156zM20 800v192h156v90v22q0 146 74 230q84 88 266 90q120 -4 222 -38v2v-2v-178q-76 28 -166 30q-68 0 -96 -38q-28 -32 -28 -108v-100h242v-192h-242v-800h-272v800h-156z" />
</font>
</defs>
</svg>
